<svg width="1600" height="1200" viewBox="0 0 1600 1200" fill="none" xmlns="http://www.w3.org/2000/svg">
  <rect width="1600" height="1200" fill="#0F281A"/>
  <rect width="1600" height="1200" fill="url(#bg)"/>
  <ellipse cx="1232" cy="180" rx="308" ry="172" fill="#F6E8CF" fill-opacity="0.15"/>
  <ellipse cx="280" cy="170" rx="240" ry="120" fill="#E5FFC9" fill-opacity="0.08"/>
  <path d="M0 486C200 420 385 412 590 470C760 518 860 544 1000 528C1190 504 1324 414 1600 424V1200H0V486Z" fill="url(#mid)"/>
  <path d="M0 660C186 598 346 584 520 640C726 706 906 772 1110 744C1282 720 1422 626 1600 632V1200H0V660Z" fill="url(#front)"/>
  <path opacity="0.4" d="M20 720C190 676 340 678 490 726C664 782 850 844 1050 828C1246 810 1382 742 1572 742" stroke="#E6F9C1" stroke-width="10" stroke-linecap="round"/>
  <path opacity="0.28" d="M60 790C260 748 408 762 604 824C796 884 960 928 1144 910C1328 892 1434 834 1558 830" stroke="#F6E8CF" stroke-width="8" stroke-linecap="round"/>
  <path opacity="0.35" d="M0 998C172 948 338 948 520 990C718 1034 904 1078 1116 1068C1290 1060 1436 1016 1600 982" stroke="#D7FF9B" stroke-width="6" stroke-linecap="round"/>
  <g opacity="0.75">
    <rect x="188" y="520" width="6" height="300" rx="3" transform="rotate(-12 188 520)" fill="#1E5E35"/>
    <rect x="232" y="532" width="7" height="340" rx="3.5" transform="rotate(-8 232 532)" fill="#2F7A3F"/>
    <rect x="280" y="540" width="5" height="310" rx="2.5" transform="rotate(6 280 540)" fill="#84CC16"/>
    <rect x="1330" y="538" width="6" height="330" rx="3" transform="rotate(8 1330 538)" fill="#D7FF9B"/>
    <rect x="1370" y="520" width="6" height="292" rx="3" transform="rotate(14 1370 520)" fill="#3F8C41"/>
  </g>
  <g opacity="0.36">
    <circle cx="1240" cy="120" r="16" fill="white"/>
    <circle cx="1288" cy="180" r="9" fill="white"/>
    <circle cx="1184" cy="226" r="11" fill="white"/>
  </g>
  <defs>
    <linearGradient id="bg" x1="800" y1="0" x2="800" y2="1200" gradientUnits="userSpaceOnUse">
      <stop stop-color="#143720"/>
      <stop offset="0.5" stop-color="#1C5E34"/>
      <stop offset="1" stop-color="#83C83B"/>
    </linearGradient>
    <linearGradient id="mid" x1="800" y1="424" x2="800" y2="1200" gradientUnits="userSpaceOnUse">
      <stop stop-color="#2B7A3F"/>
      <stop offset="1" stop-color="#17552E"/>
    </linearGradient>
    <linearGradient id="front" x1="800" y1="632" x2="800" y2="1200" gradientUnits="userSpaceOnUse">
      <stop stop-color="#5BA83A"/>
      <stop offset="1" stop-color="#143720"/>
    </linearGradient>
  </defs>
</svg>
